<?xml version="1.0" encoding="utf-8"?>
<!-- Generator: Adobe Illustrator 20.1.0, SVG Export Plug-In . SVG Version: 6.00 Build 0)  -->
<svg version="1.1"
	 id="svg3529" inkscape:version="0.91pre3 r13670" sodipodi:docname="_svgclean2.svg" xmlns:cc="http://creativecommons.org/ns#" xmlns:dc="http://purl.org/dc/elements/1.1/" xmlns:inkscape="http://www.inkscape.org/namespaces/inkscape" xmlns:rdf="http://www.w3.org/1999/02/22-rdf-syntax-ns#" xmlns:sodipodi="http://sodipodi.sourceforge.net/DTD/sodipodi-0.dtd"
	 xmlns="http://www.w3.org/2000/svg" xmlns:xlink="http://www.w3.org/1999/xlink" x="0px" y="0px" viewBox="0 0 1083.5 418.5"
	 style="enable-background:new 0 0 1083.5 418.5;" xml:space="preserve">
<style type="text/css">
	.st0{enable-background:new    ;}
	.st1{fill:#999999;}
	.st2{fill:#F4B4B4;}
	.st3{fill:#FBC9A5;}
	.st4{fill:#F3F29D;}
	.st5{fill:#C6EF93;}
	.st6{fill:#B3FFB3;}
	.st7{fill:#A0E6BF;}
	.st8{fill:#B5E7E7;}
	.st9{fill:#BDCFFD;}
	.st10{fill:#DAB3FF;}
	.st11{fill:#F8B4E5;}
	.st12{fill:#808080;}
	.st13{fill:#FFFFFF;stroke:#BABABA;stroke-width:1.4398;stroke-linecap:round;stroke-miterlimit:3.9643;}
	.st14{fill:none;stroke:#BABABA;stroke-width:1.44;stroke-linecap:round;stroke-miterlimit:3.9647;}
	.st15{fill:#BABABA;}
	.st16{font-family:'Arial-BoldMT';}
	.st17{font-size:12.5px;}
	.st18{font-size:15px;}
	.st19{font-family:'MyriadPro-Regular';}
	.st20{display:none;}
	.st21{display:inline;fill:#1C1C1C;}
</style>
<sodipodi:namedview  bordercolor="#666666" borderopacity="0.55686275" id="base" inkscape:current-layer="layer3" inkscape:cx="432.28001" inkscape:cy="527.75164" inkscape:document-units="in" inkscape:pageopacity="0.0" inkscape:pageshadow="2" inkscape:showpageshadow="false" inkscape:snap-global="true" inkscape:window-height="540" inkscape:window-maximized="0" inkscape:window-width="742" inkscape:window-x="0" inkscape:window-y="0" inkscape:zoom="2.5769204" pagecolor="#ffffff" showborder="false" showgrid="false" showguides="true" units="in">
	
		<inkscape:grid  color="#0000ff" dotted="false" empspacing="5" enabled="true" id="grid3537" opacity=".2" originx="1.3800157e-34in" originy="3.538889in" snapvisiblegridlinesonly="true" spacingx="0.75in" spacingy="0.75in" type="xygrid" units="in" visible="true">
		</inkscape:grid>
</sodipodi:namedview>
<g id="layer6" transform="translate(0 .0032640)" inkscape:groupmode="layer" inkscape:label="Notes" sodipodi:insensitive="true">
	<g id="g4700" transform="translate(-1.44 -47.726)">
		<text transform="matrix(1 0 0 1 23.34 486.5429)" class="st1" style="font-family:'ArialMT'; font-size:9.9998px;">         </text>
		<text transform="matrix(1 0 0 1 23.34 486.5429)" class="st1" style="font-family:'ArialMT'; font-size:12px;">• Fonts — DejaVu Sans and Nimbus Sans.</text>
		<text transform="matrix(1 0 0 1 250.5327 486.5429)" class="st1" style="font-family:'ArialMT'; font-size:9.9998px;">         </text>
		<text transform="matrix(1 0 0 1 23.34 486.5429)" class="st1" style="font-family:'ArialMT'; font-size:12px;">• Specifications — key width 0.696 inch; gap 0.054 inch</text>
		<text transform="matrix(1 0 0 1 317.7091 486.5429)" class="st1" style="font-family:'ArialMT'; font-size:9.9998px;">         </text>
		<text transform="matrix(1 0 0 1 23.34 486.5429)" class="st1" style="font-family:'ArialMT'; font-size:12px;">• (Key maps are on a hidden layer.)</text>
		<text transform="matrix(1 0 0 1 210.971 486.5429)" class="st1" style="font-family:'ArialMT'; font-size:9.9998px;">      </text>
		<g id="g4739" transform="translate(-22)">
			<g id="g5043" transform="translate(-1.813)">
				<text transform="matrix(1 0 0 1 358.1432 486.5429)" class="st1" style="font-family:'ArialMT'; font-size:9.9998px;">             </text>
				<text transform="matrix(1 0 0 1 358.1432 486.5429)" class="st1" style="font-family:'ArialMT'; font-size:12px;">• Key (mapped), fill colors</text>
				<text transform="matrix(1 0 0 1 494.3885 486.5429)" class="st1" style="font-family:'ArialMT'; font-size:9.9998px;">          </text>
				<text transform="matrix(1 0 0 1 358.7819 501.5427)" class="st1" style="font-family:'ArialMT'; font-size:9.9998px;">             </text>
				<text transform="matrix(1 0 0 1 358.7819 501.5427)" class="st2" style="font-family:'ArialMT'; font-size:12px;">■</text>
				<text transform="matrix(1 0 0 1 366.0298 501.5427)" class="st1" style="font-family:'ArialMT'; font-size:12px;"> Red</text>
				<text transform="matrix(1 0 0 1 391.3769 501.5427)" class="st1" style="font-family:'ArialMT'; font-size:9.9998px;">             </text>
				<text transform="matrix(1 0 0 1 358.7819 501.5427)" class="st3" style="font-family:'ArialMT'; font-size:12px;">■</text>
				<text transform="matrix(1 0 0 1 366.0298 501.5427)" class="st1" style="font-family:'ArialMT'; font-size:12px;"> Orange</text>
				<text transform="matrix(1 0 0 1 409.3883 501.5427)" class="st1" style="font-family:'ArialMT'; font-size:9.9998px;">             </text>
				<text transform="matrix(1 0 0 1 358.7819 501.5427)" class="st1" style="font-family:'ArialMT'; font-size:9.9998px;">          </text>
				<text transform="matrix(1 0 0 1 420.6176 501.5427)" class="st1" style="font-family:'ArialMT'; font-size:9.9998px;">             </text>
				<text transform="matrix(1 0 0 1 420.6176 501.5427)" class="st4" style="font-family:'ArialMT'; font-size:12px;">■</text>
				<text transform="matrix(1 0 0 1 427.8654 501.5427)" class="st1" style="font-family:'ArialMT'; font-size:12px;"> Yellow</text>
				<text transform="matrix(1 0 0 1 465.2299 501.5427)" class="st1" style="font-family:'ArialMT'; font-size:9.9998px;">             </text>
				<text transform="matrix(1 0 0 1 420.6176 501.5427)" class="st5" style="font-family:'ArialMT'; font-size:12px;">■</text>
				<text transform="matrix(1 0 0 1 427.8654 501.5427)" class="st1" style="font-family:'ArialMT'; font-size:12px;"> Avocado</text>
				<text transform="matrix(1 0 0 1 477.0188 501.5427)" class="st1" style="font-family:'ArialMT'; font-size:9.9998px;">          </text>
				<text transform="matrix(1 0 0 1 489.0968 501.5427)" class="st1" style="font-family:'ArialMT'; font-size:9.9998px;">             </text>
				<text transform="matrix(1 0 0 1 489.0968 501.5427)" class="st6" style="font-family:'ArialMT'; font-size:12px;">■</text>
				<text transform="matrix(1 0 0 1 496.3447 501.5427)" class="st1" style="font-family:'ArialMT'; font-size:12px;"> Green</text>
				<text transform="matrix(1 0 0 1 533.0295 501.5427)" class="st1" style="font-family:'ArialMT'; font-size:9.9998px;">             </text>
				<text transform="matrix(1 0 0 1 489.0968 501.5427)" class="st7" style="font-family:'ArialMT'; font-size:12px;">■</text>
				<text transform="matrix(1 0 0 1 496.3447 501.5427)" class="st1" style="font-family:'ArialMT'; font-size:12px;"> Teal</text>
				<text transform="matrix(1 0 0 1 521.475 501.5427)" class="st1" style="font-family:'ArialMT'; font-size:9.9998px;">          </text>
				<text transform="matrix(1 0 0 1 543.9409 501.5427)" class="st1" style="font-family:'ArialMT'; font-size:9.9998px;">             </text>
				<text transform="matrix(1 0 0 1 543.9409 501.5427)" class="st8" style="font-family:'ArialMT'; font-size:12px;">■</text>
				<text transform="matrix(1 0 0 1 551.1888 501.5427)" class="st1" style="font-family:'ArialMT'; font-size:12px;"> Cyan</text>
				<text transform="matrix(1 0 0 1 582.5358 501.5427)" class="st1" style="font-family:'ArialMT'; font-size:9.9998px;">             </text>
				<text transform="matrix(1 0 0 1 543.9409 501.5427)" class="st9" style="font-family:'ArialMT'; font-size:12px;">■</text>
				<text transform="matrix(1 0 0 1 551.1888 501.5427)" class="st1" style="font-family:'ArialMT'; font-size:12px;"> Blue</text>
				<text transform="matrix(1 0 0 1 578.5399 501.5427)" class="st1" style="font-family:'ArialMT'; font-size:9.9998px;">          </text>
				<text transform="matrix(1 0 0 1 593.4414 501.5427)" class="st1" style="font-family:'ArialMT'; font-size:9.9998px;">             </text>
				<text transform="matrix(1 0 0 1 593.4414 501.5427)" class="st10" style="font-family:'ArialMT'; font-size:12px;">■</text>
				<text transform="matrix(1 0 0 1 600.6893 501.5427)" class="st1" style="font-family:'ArialMT'; font-size:12px;"> Purple</text>
				<text transform="matrix(1 0 0 1 638.71 501.5427)" class="st1" style="font-family:'ArialMT'; font-size:9.9998px;">             </text>
				<text transform="matrix(1 0 0 1 593.4414 501.5427)" class="st11" style="font-family:'ArialMT'; font-size:12px;">■</text>
				<text transform="matrix(1 0 0 1 600.6893 501.5427)" class="st1" style="font-family:'ArialMT'; font-size:12px;"> Magenta</text>
				<text transform="matrix(1 0 0 1 650.7215 501.5427)" class="st1" style="font-family:'ArialMT'; font-size:9.9998px;">          </text>
			</g>
			<g id="g4997" transform="translate(-38.466)">
				<text transform="matrix(1 0 0 1 700.3191 486.5357)" class="st1" style="font-family:'ArialMT'; font-size:9.9998px;">             </text>
				<text transform="matrix(1 0 0 1 700.3191 486.5357)" class="st1" style="font-family:'ArialMT'; font-size:9.9998px;">          </text>
				<text transform="matrix(1 0 0 1 700.9578 501.5355)" class="st1" style="font-family:'ArialMT'; font-size:9.9998px;">             </text>
				<text transform="matrix(1 0 0 1 700.9578 501.5355)" class="st1" style="font-family:'ArialMT'; font-size:12px;">■ 29% black — Key (mapped), stroke color</text>
				<text transform="matrix(1 0 0 1 929.627 501.5355)" class="st1" style="font-family:'ArialMT'; font-size:9.9998px;">             </text>
				<text transform="matrix(1 0 0 1 700.9578 501.5355)" class="st12" style="font-family:'ArialMT'; font-size:12px;">■</text>
				<text transform="matrix(1 0 0 1 708.2056 501.5355)" class="st1" style="font-family:'ArialMT'; font-size:12px;"> 50% black — Key label (mapped), fill color</text>
				<text transform="matrix(1 0 0 1 936.9686 501.5355)" class="st1" style="font-family:'ArialMT'; font-size:9.9998px;">          </text>
			</g>
		</g>
	</g>
</g>
<g id="layer2" transform="translate(0 -31.497)" inkscape:groupmode="layer" inkscape:label="Frame" sodipodi:insensitive="true">
	<path id="rect4322" class="st13" d="M12.9,32.2h1044.4c6.7,0,12.2,5.4,12.2,12.1v392.8c0,6.7-5.4,12.1-12.2,12.1H12.9
		c-6.7,0-12.1-5.4-12.1-12.1V44.4C0.7,37.7,6.2,32.2,12.9,32.2z"/>
</g>
<g id="layer7" transform="translate(0 .0032640)" inkscape:groupmode="layer" inkscape:label="Keys" sodipodi:insensitive="true">
	<path id="rect4319" class="st14" d="M24.6,23.2h41.6c0.8,0,1.4,0.6,1.4,1.4v31.7c0,0.8-0.6,1.4-1.4,1.4H24.6
		c-0.8,0-1.4-0.6-1.4-1.4V24.6C23.2,23.8,23.9,23.2,24.6,23.2z"/>
	<path id="rect3968" class="st14" d="M75,23.2h52.4c0.8,0,1.4,0.6,1.4,1.4v31.7c0,0.8-0.6,1.4-1.4,1.4H75c-0.8,0-1.4-0.6-1.4-1.4
		V24.6C73.6,23.9,74.3,23.2,75,23.2z"/>
	<path id="rect3970" class="st14" d="M136.2,23.2h52.4c0.8,0,1.4,0.6,1.4,1.4v31.7c0,0.8-0.6,1.4-1.4,1.4h-52.4
		c-0.8,0-1.4-0.6-1.4-1.4V24.6C134.8,23.9,135.5,23.2,136.2,23.2z"/>
	<path id="rect3972" class="st14" d="M197.4,23.2h52.4c0.8,0,1.4,0.6,1.4,1.4v31.7c0,0.8-0.6,1.4-1.4,1.4h-52.4
		c-0.8,0-1.4-0.6-1.4-1.4V24.6C196,23.9,196.7,23.2,197.4,23.2z"/>
	<path id="rect3974" class="st14" d="M258.6,23.2h52.4c0.8,0,1.4,0.6,1.4,1.4v31.7c0,0.8-0.6,1.4-1.4,1.4h-52.4
		c-0.8,0-1.4-0.6-1.4-1.4V24.6C257.2,23.9,257.9,23.2,258.6,23.2z"/>
	<path id="rect3976" class="st14" d="M319.8,23.2h52.4c0.8,0,1.4,0.6,1.4,1.4v31.7c0,0.8-0.6,1.4-1.4,1.4h-52.4
		c-0.8,0-1.4-0.6-1.4-1.4V24.6C318.4,23.9,319.1,23.2,319.8,23.2z"/>
	<path id="rect3978" class="st14" d="M381,23.2h52.4c0.8,0,1.4,0.6,1.4,1.4v31.7c0,0.8-0.6,1.4-1.4,1.4H381c-0.8,0-1.4-0.6-1.4-1.4
		V24.6C379.6,23.9,380.3,23.2,381,23.2z"/>
	<path id="rect3980" class="st14" d="M442.2,23.2h52.4c0.8,0,1.4,0.6,1.4,1.4v31.7c0,0.8-0.6,1.4-1.4,1.4h-52.4
		c-0.8,0-1.4-0.6-1.4-1.4V24.6C440.8,23.9,441.5,23.2,442.2,23.2z"/>
	<path id="rect3982" class="st14" d="M503.4,23.2h52.4c0.8,0,1.4,0.6,1.4,1.4v31.7c0,0.8-0.6,1.4-1.4,1.4h-52.4
		c-0.8,0-1.4-0.6-1.4-1.4V24.6C502,23.9,502.7,23.2,503.4,23.2z"/>
	<path id="rect3984" class="st14" d="M564.6,23.2h52.4c0.8,0,1.4,0.6,1.4,1.4v31.7c0,0.8-0.6,1.4-1.4,1.4h-52.4
		c-0.8,0-1.4-0.6-1.4-1.4V24.6C563.2,23.9,563.9,23.2,564.6,23.2z"/>
	<path id="rect3986" class="st14" d="M625.8,23.2h52.4c0.8,0,1.4,0.6,1.4,1.4v31.7c0,0.8-0.6,1.4-1.4,1.4h-52.4
		c-0.8,0-1.4-0.6-1.4-1.4V24.6C624.4,23.9,625.1,23.2,625.8,23.2z"/>
	<path id="rect3988" class="st14" d="M687,23.2h52.4c0.8,0,1.4,0.6,1.4,1.4v31.7c0,0.8-0.6,1.4-1.4,1.4H687c-0.8,0-1.4-0.6-1.4-1.4
		V24.6C685.6,23.9,686.3,23.2,687,23.2z"/>
	<path id="rect3990" class="st14" d="M748.2,23.2h52.4c0.8,0,1.4,0.6,1.4,1.4v31.7c0,0.8-0.6,1.4-1.4,1.4h-52.4
		c-0.8,0-1.4-0.6-1.4-1.4V24.6C746.8,23.9,747.5,23.2,748.2,23.2z"/>
	<path id="rect3992" class="st14" d="M809.4,23.2h52.4c0.8,0,1.4,0.6,1.4,1.4v31.7c0,0.8-0.6,1.4-1.4,1.4h-52.4
		c-0.8,0-1.4-0.6-1.4-1.4V24.6C808,23.9,808.7,23.2,809.4,23.2z"/>
	<path id="rect3994" class="st14" d="M870.6,23.2h52.4c0.8,0,1.4,0.6,1.4,1.4v31.7c0,0.8-0.6,1.4-1.4,1.4h-52.4
		c-0.8,0-1.4-0.6-1.4-1.4V24.6C869.2,23.9,869.9,23.2,870.6,23.2z"/>
	<path id="rect3996" class="st14" d="M931.8,23.2h52.4c0.8,0,1.4,0.6,1.4,1.4v31.7c0,0.8-0.6,1.4-1.4,1.4h-52.4
		c-0.8,0-1.4-0.6-1.4-1.4V24.6C930.4,23.9,931.1,23.2,931.8,23.2z"/>
	<path id="rect3998" class="st14" d="M993,23.2h52.4c0.8,0,1.4,0.6,1.4,1.4v31.7c0,0.8-0.6,1.4-1.4,1.4H993c-0.8,0-1.4-0.6-1.4-1.4
		V24.6C991.6,23.9,992.3,23.2,993,23.2z"/>
	<path id="rect4317" class="st14" d="M25.8,64h38.6c1.4,0,2.5,1.1,2.5,2.5v56.2c0,1.4-1.1,2.5-2.5,2.5H25.8c-1.4,0-2.5-1.1-2.5-2.5
		V66.5C23.3,65.2,24.4,64,25.8,64z"/>
	<path id="rect5018" class="st14" d="M131.8,64.1H75.6c-1.4,0-2.5,1.1-2.5,2.5v56.2c0,1.4,1.1,2.5,2.5,2.5h56.2
		c1.4,0,2.5-1.1,2.5-2.5V66.6C134.3,65.2,133.2,64.1,131.8,64.1z"/>
	<path id="rect5016" class="st14" d="M199.3,64.1h-56.2c-1.4,0-2.5,1.1-2.5,2.5v56.2c0,1.4,1.1,2.5,2.5,2.5h56.2
		c1.4,0,2.5-1.1,2.5-2.5V66.6C201.8,65.2,200.7,64.1,199.3,64.1z"/>
	<path id="rect5014" class="st14" d="M266.8,64.1h-56.2c-1.4,0-2.5,1.1-2.5,2.5v56.2c0,1.4,1.1,2.5,2.5,2.5h56.2
		c1.4,0,2.5-1.1,2.5-2.5V66.6C269.3,65.2,268.2,64.1,266.8,64.1z"/>
	<path id="rect5012" class="st14" d="M334.3,64.1h-56.2c-1.4,0-2.5,1.1-2.5,2.5v56.2c0,1.4,1.1,2.5,2.5,2.5h56.2
		c1.4,0,2.5-1.1,2.5-2.5V66.6C336.8,65.2,335.7,64.1,334.3,64.1z"/>
	<path id="rect5010" class="st14" d="M401.8,64.1h-56.2c-1.4,0-2.5,1.1-2.5,2.5v56.2c0,1.4,1.1,2.5,2.5,2.5h56.2
		c1.4,0,2.5-1.1,2.5-2.5V66.6C404.3,65.2,403.2,64.1,401.8,64.1z"/>
	<path id="rect5008" class="st14" d="M469.3,64.1h-56.2c-1.4,0-2.5,1.1-2.5,2.5v56.2c0,1.4,1.1,2.5,2.5,2.5h56.2
		c1.4,0,2.5-1.1,2.5-2.5V66.6C471.8,65.2,470.7,64.1,469.3,64.1z"/>
	<path id="rect5006" class="st14" d="M536.8,64.1h-56.2c-1.4,0-2.5,1.1-2.5,2.5v56.2c0,1.4,1.1,2.5,2.5,2.5h56.2
		c1.4,0,2.5-1.1,2.5-2.5V66.6C539.3,65.2,538.2,64.1,536.8,64.1z"/>
	<path id="rect5004" class="st14" d="M604.3,64.1h-56.2c-1.4,0-2.5,1.1-2.5,2.5v56.2c0,1.4,1.1,2.5,2.5,2.5h56.2
		c1.4,0,2.5-1.1,2.5-2.5V66.6C606.8,65.2,605.7,64.1,604.3,64.1z"/>
	<path id="rect5002" class="st14" d="M671.8,64.1h-56.2c-1.4,0-2.5,1.1-2.5,2.5v56.2c0,1.4,1.1,2.5,2.5,2.5h56.2
		c1.4,0,2.5-1.1,2.5-2.5V66.6C674.3,65.2,673.2,64.1,671.8,64.1z"/>
	<path id="rect5000" class="st14" d="M739.3,64.1h-56.2c-1.4,0-2.5,1.1-2.5,2.5v56.2c0,1.4,1.1,2.5,2.5,2.5h56.2
		c1.4,0,2.5-1.1,2.5-2.5V66.6C741.8,65.2,740.7,64.1,739.3,64.1z"/>
	<path id="rect4998" class="st14" d="M806.8,64.1h-56.2c-1.4,0-2.5,1.1-2.5,2.5v56.2c0,1.4,1.1,2.5,2.5,2.5h56.2
		c1.4,0,2.5-1.1,2.5-2.5V66.6C809.3,65.2,808.2,64.1,806.8,64.1z"/>
	<path id="rect4996" class="st14" d="M874.3,64.1h-56.2c-1.4,0-2.5,1.1-2.5,2.5v56.2c0,1.4,1.1,2.5,2.5,2.5h56.2
		c1.4,0,2.5-1.1,2.5-2.5V66.6C876.8,65.2,875.7,64.1,874.3,64.1z"/>
	<path id="rect4994" class="st14" d="M976.5,64.1h-91c-1.4,0-2.5,1.1-2.5,2.5v56.2c0,1.4,1.1,2.5,2.5,2.5h91c1.4,0,2.5-1.1,2.5-2.5
		V66.6C979,65.2,977.9,64.1,976.5,64.1z"/>
	<path id="rect4046" class="st14" d="M988.2,64.1h56.2c1.4,0,2.5,1.1,2.5,2.5v56.2c0,1.4-1.1,2.5-2.5,2.5h-56.2
		c-1.4,0-2.5-1.1-2.5-2.5V66.6C985.7,65.2,986.8,64.1,988.2,64.1z"/>
	<path id="rect4315" class="st14" d="M25.7,131.6H99c1.4,0,2.5,1.1,2.5,2.5v56.2c0,1.4-1.1,2.5-2.5,2.5H25.7c-1.4,0-2.5-1.1-2.5-2.5
		v-56.2C23.2,132.7,24.3,131.6,25.7,131.6z"/>
	<path id="rect5020" class="st14" d="M110.3,131.6h56.2c1.4,0,2.5,1.1,2.5,2.5v56.2c0,1.4-1.1,2.5-2.5,2.5h-56.2
		c-1.4,0-2.5-1.1-2.5-2.5v-56.2C107.8,132.7,108.9,131.6,110.3,131.6z"/>
	<path id="rect3930" class="st14" d="M234,131.6h-56.2c-1.4,0-2.5,1.1-2.5,2.5v56.2c0,1.4,1.1,2.5,2.5,2.5H234
		c1.4,0,2.5-1.1,2.5-2.5v-56.2C236.5,132.7,235.4,131.6,234,131.6z"/>
	<path id="rect3928" class="st14" d="M301.5,131.6h-56.2c-1.4,0-2.5,1.1-2.5,2.5v56.2c0,1.4,1.1,2.5,2.5,2.5h56.2
		c1.4,0,2.5-1.1,2.5-2.5v-56.2C304,132.7,302.9,131.6,301.5,131.6z"/>
	<path id="rect3926" class="st14" d="M369,131.6h-56.2c-1.4,0-2.5,1.1-2.5,2.5v56.2c0,1.4,1.1,2.5,2.5,2.5H369
		c1.4,0,2.5-1.1,2.5-2.5v-56.2C371.5,132.7,370.4,131.6,369,131.6z"/>
	<path id="rect3924" class="st14" d="M436.5,131.6h-56.2c-1.4,0-2.5,1.1-2.5,2.5v56.2c0,1.4,1.1,2.5,2.5,2.5h56.2
		c1.4,0,2.5-1.1,2.5-2.5v-56.2C439,132.7,437.9,131.6,436.5,131.6z"/>
	<path id="rect3922" class="st14" d="M504,131.6h-56.2c-1.4,0-2.5,1.1-2.5,2.5v56.2c0,1.4,1.1,2.5,2.5,2.5H504
		c1.4,0,2.5-1.1,2.5-2.5v-56.2C506.5,132.7,505.4,131.6,504,131.6z"/>
	<path id="rect3920" class="st14" d="M571.5,131.6h-56.2c-1.4,0-2.5,1.1-2.5,2.5v56.2c0,1.4,1.1,2.5,2.5,2.5h56.2
		c1.4,0,2.5-1.1,2.5-2.5v-56.2C574,132.7,572.9,131.6,571.5,131.6z"/>
	<path id="rect3918" class="st14" d="M639,131.6h-56.2c-1.4,0-2.5,1.1-2.5,2.5v56.2c0,1.4,1.1,2.5,2.5,2.5H639
		c1.4,0,2.5-1.1,2.5-2.5v-56.2C641.5,132.7,640.4,131.6,639,131.6z"/>
	<path id="rect3916" class="st14" d="M706.5,131.6h-56.2c-1.4,0-2.5,1.1-2.5,2.5v56.2c0,1.4,1.1,2.5,2.5,2.5h56.2
		c1.4,0,2.5-1.1,2.5-2.5v-56.2C709,132.7,707.9,131.6,706.5,131.6z"/>
	<path id="rect3914" class="st14" d="M774,131.6h-56.2c-1.4,0-2.5,1.1-2.5,2.5v56.2c0,1.4,1.1,2.5,2.5,2.5H774
		c1.4,0,2.5-1.1,2.5-2.5v-56.2C776.5,132.7,775.4,131.6,774,131.6z"/>
	<path id="rect3912" class="st14" d="M841.5,131.6h-56.2c-1.4,0-2.5,1.1-2.5,2.5v56.2c0,1.4,1.1,2.5,2.5,2.5h56.2
		c1.4,0,2.5-1.1,2.5-2.5v-56.2C844,132.7,842.9,131.6,841.5,131.6z"/>
	<path id="rect3910" class="st14" d="M909,131.6h-56.2c-1.4,0-2.5,1.1-2.5,2.5v56.2c0,1.4,1.1,2.5,2.5,2.5H909
		c1.4,0,2.5-1.1,2.5-2.5v-56.2C911.5,132.7,910.4,131.6,909,131.6z"/>
	<path id="rect3553" class="st14" d="M976.5,131.6h-56.2c-1.4,0-2.5,1.1-2.5,2.5v56.2c0,1.4,1.1,2.5,2.5,2.5h56.2
		c1.4,0,2.5-1.1,2.5-2.5v-56.2C979,132.7,977.9,131.6,976.5,131.6z"/>
	<path id="rect4036" class="st14" d="M988,131.6h56.2c1.4,0,2.5,1.1,2.5,2.5v56.2c0,1.4-1.1,2.5-2.5,2.5H988c-1.4,0-2.5-1.1-2.5-2.5
		v-56.2C985.5,132.7,986.6,131.6,988,131.6z"/>
	<path id="rect4313" class="st14" d="M25.7,199.1h90c1.4,0,2.5,1.1,2.5,2.5v56.2c0,1.4-1.1,2.5-2.5,2.5h-90c-1.4,0-2.5-1.1-2.5-2.5
		v-56.2C23.2,200.2,24.3,199.1,25.7,199.1z"/>
	<path id="rect4970" class="st14" d="M127,199.1h56.2c1.4,0,2.5,1.1,2.5,2.5v56.2c0,1.4-1.1,2.5-2.5,2.5H127c-1.4,0-2.5-1.1-2.5-2.5
		v-56.2C124.5,200.2,125.6,199.1,127,199.1z"/>
	<path id="rect4972" class="st14" d="M194.5,199.1h56.2c1.4,0,2.5,1.1,2.5,2.5v56.2c0,1.4-1.1,2.5-2.5,2.5h-56.2
		c-1.4,0-2.5-1.1-2.5-2.5v-56.2C192,200.2,193.1,199.1,194.5,199.1z"/>
	<path id="rect4974" class="st14" d="M262,199.1h56.2c1.4,0,2.5,1.1,2.5,2.5v56.2c0,1.4-1.1,2.5-2.5,2.5H262c-1.4,0-2.5-1.1-2.5-2.5
		v-56.2C259.5,200.2,260.6,199.1,262,199.1z"/>
	<path id="rect4976" class="st14" d="M329.5,199.1h56.2c1.4,0,2.5,1.1,2.5,2.5v56.2c0,1.4-1.1,2.5-2.5,2.5h-56.2
		c-1.4,0-2.5-1.1-2.5-2.5v-56.2C327,200.2,328.1,199.1,329.5,199.1z"/>
	<path id="rect4978" class="st14" d="M397,199.1h56.2c1.4,0,2.5,1.1,2.5,2.5v56.2c0,1.4-1.1,2.5-2.5,2.5H397c-1.4,0-2.5-1.1-2.5-2.5
		v-56.2C394.5,200.2,395.6,199.1,397,199.1z"/>
	<path id="rect4980" class="st14" d="M464.5,199.1h56.2c1.4,0,2.5,1.1,2.5,2.5v56.2c0,1.4-1.1,2.5-2.5,2.5h-56.2
		c-1.4,0-2.5-1.1-2.5-2.5v-56.2C462,200.2,463.1,199.1,464.5,199.1z"/>
	<path id="rect4982" class="st14" d="M532,199.1h56.2c1.4,0,2.5,1.1,2.5,2.5v56.2c0,1.4-1.1,2.5-2.5,2.5H532c-1.4,0-2.5-1.1-2.5-2.5
		v-56.2C529.5,200.2,530.6,199.1,532,199.1z"/>
	<path id="rect4984" class="st14" d="M599.5,199.1h56.2c1.4,0,2.5,1.1,2.5,2.5v56.2c0,1.4-1.1,2.5-2.5,2.5h-56.2
		c-1.4,0-2.5-1.1-2.5-2.5v-56.2C597,200.2,598.1,199.1,599.5,199.1z"/>
	<path id="rect4986" class="st14" d="M667,199.1h56.2c1.4,0,2.5,1.1,2.5,2.5v56.2c0,1.4-1.1,2.5-2.5,2.5H667c-1.4,0-2.5-1.1-2.5-2.5
		v-56.2C664.5,200.2,665.6,199.1,667,199.1z"/>
	<path id="rect4988" class="st14" d="M734.5,199.1h56.2c1.4,0,2.5,1.1,2.5,2.5v56.2c0,1.4-1.1,2.5-2.5,2.5h-56.2
		c-1.4,0-2.5-1.1-2.5-2.5v-56.2C732,200.2,733.1,199.1,734.5,199.1z"/>
	<path id="rect4990" class="st14" d="M802,199.1h56.2c1.4,0,2.5,1.1,2.5,2.5v56.2c0,1.4-1.1,2.5-2.5,2.5H802c-1.4,0-2.5-1.1-2.5-2.5
		v-56.2C799.5,200.2,800.6,199.1,802,199.1z"/>
	<path id="rect4992" class="st14" d="M869.5,199.1h107.4c1.4,0,2.5,1.1,2.5,2.5v56.2c0,1.4-1.1,2.5-2.5,2.5H869.5
		c-1.4,0-2.5-1.1-2.5-2.5v-56.2C867,200.2,868.1,199.1,869.5,199.1z"/>
	<path id="rect4026" class="st14" d="M988,199.1h56.2c1.4,0,2.5,1.1,2.5,2.5v56.2c0,1.4-1.1,2.5-2.5,2.5H988c-1.4,0-2.5-1.1-2.5-2.5
		v-56.2C985.5,200.2,986.6,199.1,988,199.1z"/>
	<path id="rect4309" class="st14" d="M25.7,266.6h123.7c1.4,0,2.5,1.1,2.5,2.5v56.2c0,1.4-1.1,2.5-2.5,2.5H25.7
		c-1.4,0-2.5-1.1-2.5-2.5v-56.2C23.2,267.7,24.3,266.6,25.7,266.6z"/>
	<path id="rect4329" class="st14" d="M160.7,266.6h56.2c1.4,0,2.5,1.1,2.5,2.5v56.2c0,1.4-1.1,2.5-2.5,2.5h-56.2
		c-1.4,0-2.5-1.1-2.5-2.5v-56.2C158.2,267.7,159.3,266.6,160.7,266.6z"/>
	<path id="rect4331" class="st14" d="M228.2,266.6h56.2c1.4,0,2.5,1.1,2.5,2.5v56.2c0,1.4-1.1,2.5-2.5,2.5h-56.2
		c-1.4,0-2.5-1.1-2.5-2.5v-56.2C225.7,267.7,226.8,266.6,228.2,266.6z"/>
	<path id="rect4333" class="st14" d="M295.7,266.6h56.2c1.4,0,2.5,1.1,2.5,2.5v56.2c0,1.4-1.1,2.5-2.5,2.5h-56.2
		c-1.4,0-2.5-1.1-2.5-2.5v-56.2C293.2,267.7,294.3,266.6,295.7,266.6z"/>
	<path id="rect4335" class="st14" d="M363.2,266.6h56.2c1.4,0,2.5,1.1,2.5,2.5v56.2c0,1.4-1.1,2.5-2.5,2.5h-56.2
		c-1.4,0-2.5-1.1-2.5-2.5v-56.2C360.7,267.7,361.8,266.6,363.2,266.6z"/>
	<path id="rect4337" class="st14" d="M430.7,266.6h56.2c1.4,0,2.5,1.1,2.5,2.5v56.2c0,1.4-1.1,2.5-2.5,2.5h-56.2
		c-1.4,0-2.5-1.1-2.5-2.5v-56.2C428.2,267.7,429.3,266.6,430.7,266.6z"/>
	<path id="rect4339" class="st14" d="M498.2,266.6h56.2c1.4,0,2.5,1.1,2.5,2.5v56.2c0,1.4-1.1,2.5-2.5,2.5h-56.2
		c-1.4,0-2.5-1.1-2.5-2.5v-56.2C495.7,267.7,496.8,266.6,498.2,266.6z"/>
	<path id="rect4341" class="st14" d="M565.7,266.6h56.2c1.4,0,2.5,1.1,2.5,2.5v56.2c0,1.4-1.1,2.5-2.5,2.5h-56.2
		c-1.4,0-2.5-1.1-2.5-2.5v-56.2C563.2,267.7,564.3,266.6,565.7,266.6z"/>
	<path id="rect4343" class="st14" d="M633.2,266.6h56.2c1.4,0,2.5,1.1,2.5,2.5v56.2c0,1.4-1.1,2.5-2.5,2.5h-56.2
		c-1.4,0-2.5-1.1-2.5-2.5v-56.2C630.7,267.7,631.8,266.6,633.2,266.6z"/>
	<path id="rect4345" class="st14" d="M700.7,266.6h56.2c1.4,0,2.5,1.1,2.5,2.5v56.2c0,1.4-1.1,2.5-2.5,2.5h-56.2
		c-1.4,0-2.5-1.1-2.5-2.5v-56.2C698.2,267.7,699.3,266.6,700.7,266.6z"/>
	<path id="rect4347" class="st14" d="M768.2,266.6h56.2c1.4,0,2.5,1.1,2.5,2.5v56.2c0,1.4-1.1,2.5-2.5,2.5h-56.2
		c-1.4,0-2.5-1.1-2.5-2.5v-56.2C765.7,267.7,766.8,266.6,768.2,266.6z"/>
	<path id="rect4349" class="st14" d="M835.7,266.6h73.1c1.4,0,2.5,1.1,2.5,2.5v56.2c0,1.4-1.1,2.5-2.5,2.5h-73.1
		c-1.4,0-2.5-1.1-2.5-2.5v-56.2C833.2,267.7,834.3,266.6,835.7,266.6z"/>
	<path id="rect4342" class="st14" d="M920.1,266.6h56.2c1.4,0,2.5,1.1,2.5,2.5v56.2c0,1.4-1.1,2.5-2.5,2.5h-56.2
		c-1.4,0-2.5-1.1-2.5-2.5v-56.2C917.6,267.7,918.8,266.6,920.1,266.6z"/>
	<path id="rect4016" class="st14" d="M988,266.6h56.2c1.4,0,2.5,1.1,2.5,2.5v56.2c0,1.4-1.1,2.5-2.5,2.5H988c-1.4,0-2.5-1.1-2.5-2.5
		v-56.2C985.5,267.7,986.6,266.6,988,266.6z"/>
	<g id="g4305" transform="translate(0 -633.86)">
		<path id="rect3539" class="st14" d="M25.7,967.9h56.2c1.4,0,2.5,1.1,2.5,2.5v56.2c0,1.4-1.1,2.5-2.5,2.5H25.7
			c-1.4,0-2.5-1.1-2.5-2.5v-56.2C23.2,969.1,24.3,967.9,25.7,967.9z"/>
	</g>
	<path id="rect4321" class="st14" d="M93.2,334.1h56.2c1.4,0,2.5,1.1,2.5,2.5v56.2c0,1.4-1.1,2.5-2.5,2.5H93.2
		c-1.4,0-2.5-1.1-2.5-2.5v-56.2C90.7,335.2,91.8,334.1,93.2,334.1z"/>
	<path id="rect4323" class="st14" d="M160.7,334.1h56.2c1.4,0,2.5,1.1,2.5,2.5v56.2c0,1.4-1.1,2.5-2.5,2.5h-56.2
		c-1.4,0-2.5-1.1-2.5-2.5v-56.2C158.2,335.2,159.3,334.1,160.7,334.1z"/>
	<path id="rect4325" class="st14" d="M228.2,334.1h56.2c1.4,0,2.5,1.1,2.5,2.5v56.2c0,1.4-1.1,2.5-2.5,2.5h-56.2
		c-1.4,0-2.5-1.1-2.5-2.5v-56.2C225.7,335.2,226.8,334.1,228.2,334.1z"/>
	<path id="rect3958" class="st14" d="M295.7,334.1h275.6c1.4,0,2.5,1.1,2.5,2.5v56.2c0,1.4-1.1,2.5-2.5,2.5H295.7
		c-1.4,0-2.5-1.1-2.5-2.5v-56.2C293.2,335.2,294.3,334.1,295.7,334.1z"/>
	<path id="rect3932" class="st14" d="M582.6,334.1h56.2c1.4,0,2.5,1.1,2.5,2.5v56.2c0,1.4-1.1,2.5-2.5,2.5h-56.2
		c-1.4,0-2.5-1.1-2.5-2.5v-56.2C580.1,335.2,581.3,334.1,582.6,334.1z"/>
	<path id="rect3934" class="st14" d="M650.1,334.1h56.2c1.4,0,2.5,1.1,2.5,2.5v56.2c0,1.4-1.1,2.5-2.5,2.5h-56.2
		c-1.4,0-2.5-1.1-2.5-2.5v-56.2C647.6,335.2,648.8,334.1,650.1,334.1z"/>
	<path id="rect3936" class="st14" d="M717.6,334.1h56.2c1.4,0,2.5,1.1,2.5,2.5v56.2c0,1.4-1.1,2.5-2.5,2.5h-56.2
		c-1.4,0-2.5-1.1-2.5-2.5v-56.2C715.1,335.2,716.3,334.1,717.6,334.1z"/>
	<path id="rect3523" class="st14" d="M785.1,334.1h56.2c1.4,0,2.5,1.1,2.5,2.5v56.2c0,1.4-1.1,2.5-2.5,2.5h-56.2
		c-1.4,0-2.5-1.1-2.5-2.5v-56.2C782.6,335.2,783.8,334.1,785.1,334.1z"/>
	<path id="rect3525" class="st14" d="M852.6,334.1h56.2c1.4,0,2.5,1.1,2.5,2.5v56.2c0,1.4-1.1,2.5-2.5,2.5h-56.2
		c-1.4,0-2.5-1.1-2.5-2.5v-56.2C850.1,335.2,851.3,334.1,852.6,334.1z"/>
	<path id="rect3527" class="st14" d="M920.1,334.1h56.2c1.4,0,2.5,1.1,2.5,2.5v56.2c0,1.4-1.1,2.5-2.5,2.5h-56.2
		c-1.4,0-2.5-1.1-2.5-2.5v-56.2C917.6,335.2,918.8,334.1,920.1,334.1z"/>
	<path id="rect3513" class="st14" d="M988,334.1h56.2c1.4,0,2.5,1.1,2.5,2.5v56.2c0,1.4-1.1,2.5-2.5,2.5H988c-1.4,0-2.5-1.1-2.5-2.5
		v-56.2C985.5,335.2,986.6,334.1,988,334.1z"/>
</g>
<g id="layer8" transform="translate(0 .0032640)" inkscape:groupmode="layer" inkscape:label="Key labels" sodipodi:insensitive="true">
	<text transform="matrix(1 0 0 1 29.3398 39.0802)" class="st15 st16 st17">       </text>
	<text transform="matrix(1 0 0 1 29.3398 39.0802)" class="st15 st16 st17">Esc</text>
	<text transform="matrix(1 0 0 1 49.5591 39.0802)" class="st15 st16 st17">    </text>
	<text transform="matrix(1 0 0 1 79.7398 39.2501)" class="st15 st16 st17">       </text>
	<text transform="matrix(1 0 0 1 79.7398 39.2501)" class="st15 st16 st17">F1</text>
	<text transform="matrix(1 0 0 1 93.0011 39.2501)" class="st15 st16 st17">    </text>
	<text transform="matrix(1 0 0 1 140.9398 39.2501)" class="st15 st16 st17">       </text>
	<text transform="matrix(1 0 0 1 140.9398 39.2501)" class="st15 st16 st17">F2</text>
	<text transform="matrix(1 0 0 1 154.201 39.2501)" class="st15 st16 st17">    </text>
	<text transform="matrix(1 0 0 1 202.1398 39.2501)" class="st15 st16 st17">       </text>
	<text transform="matrix(1 0 0 1 202.1398 39.2501)" class="st15 st16 st17">F3</text>
	<text transform="matrix(1 0 0 1 215.4011 39.2501)" class="st15 st16 st17">    </text>
	<text transform="matrix(1 0 0 1 263.3398 39.2501)" class="st15 st16 st17">       </text>
	<text transform="matrix(1 0 0 1 263.3398 39.2501)" class="st15 st16 st17">F4</text>
	<text transform="matrix(1 0 0 1 276.6011 39.2501)" class="st15 st16 st17">    </text>
	<text transform="matrix(1 0 0 1 324.5399 39.2501)" class="st15 st16 st17">       </text>
	<text transform="matrix(1 0 0 1 324.5399 39.2501)" class="st15 st16 st17">F5</text>
	<text transform="matrix(1 0 0 1 337.8011 39.2501)" class="st15 st16 st17">    </text>
	<text transform="matrix(1 0 0 1 385.7398 39.2501)" class="st15 st16 st17">       </text>
	<text transform="matrix(1 0 0 1 385.7398 39.2501)" class="st15 st16 st17">F6</text>
	<text transform="matrix(1 0 0 1 399.0011 39.2501)" class="st15 st16 st17">    </text>
	<text transform="matrix(1 0 0 1 446.9398 39.2501)" class="st15 st16 st17">       </text>
	<text transform="matrix(1 0 0 1 446.9398 39.2501)" class="st15 st16 st17">F7</text>
	<text transform="matrix(1 0 0 1 460.2011 39.2501)" class="st15 st16 st17">    </text>
	<text transform="matrix(1 0 0 1 508.1399 39.2501)" class="st15 st16 st17">       </text>
	<text transform="matrix(1 0 0 1 508.1399 39.2501)" class="st15 st16 st17">F8</text>
	<text transform="matrix(1 0 0 1 521.4011 39.2501)" class="st15 st16 st17">    </text>
	<text transform="matrix(1 0 0 1 569.3398 39.2501)" class="st15 st16 st17">       </text>
	<text transform="matrix(1 0 0 1 569.3398 39.2501)" class="st15 st16 st17">F9</text>
	<text transform="matrix(1 0 0 1 582.6011 39.2501)" class="st15 st16 st17">    </text>
	<text transform="matrix(1 0 0 1 630.5398 39.2501)" class="st15 st16 st17">       </text>
	<text transform="matrix(1 0 0 1 630.5398 39.2501)" class="st15 st16 st17">F10</text>
	<text transform="matrix(1 0 0 1 650.121 39.2501)" class="st15 st16 st17">    </text>
	<text transform="matrix(1 0 0 1 691.7398 39.2501)" class="st15 st16 st17">       </text>
	<text transform="matrix(1 0 0 1 691.7398 39.2501)" class="st15 st16 st17">F11</text>
	<text transform="matrix(1 0 0 1 710.694 39.2501)" class="st15 st16 st17">    </text>
	<text transform="matrix(1 0 0 1 752.9398 39.2501)" class="st15 st16 st17">       </text>
	<text transform="matrix(1 0 0 1 752.9398 39.2501)" class="st15 st16 st17">F12</text>
	<text transform="matrix(1 0 0 1 772.521 39.2501)" class="st15 st16 st17">    </text>
	<text transform="matrix(1 0 0 1 814.1398 39.2501)" class="st15 st16 st17">       </text>
	<text transform="matrix(1 0 0 1 814.1398 39.2501)" class="st15 st16 st17">NumL</text>
	<text transform="matrix(1 0 0 1 846.3331 39.2501)" class="st15 st16 st17">    </text>
	<text transform="matrix(1 0 0 1 875.3398 39.2501)" class="st15 st16 st17">       </text>
	<text transform="matrix(1 0 0 1 875.3398 39.2501)" class="st15 st16 st17">PrtSc</text>
	<text transform="matrix(1 0 0 1 905.0251 39.2501)" class="st15 st16 st17">    </text>
	<text transform="matrix(1 0 0 1 936.5398 39.2501)" class="st15 st16 st17">       </text>
	<text transform="matrix(1 0 0 1 936.5398 39.2501)" class="st15 st16 st17">ScrLk</text>
	<text transform="matrix(1 0 0 1 968.1227 39.2501)" class="st15 st16 st17">    </text>
	<text transform="matrix(1 0 0 1 997.7398 39.2501)" class="st15 st16 st17">       </text>
	<text transform="matrix(1 0 0 1 997.7398 39.2501)" class="st15 st16 st17">Pause</text>
	<text transform="matrix(1 0 0 1 1031.2203 39.2501)" class="st15 st16 st17">    </text>
	<text transform="matrix(1 0 0 1 30.2902 82.9041)" class="st15 st16 st18">       </text>
	<text transform="matrix(1 0 0 1 30.2902 82.9041)" class="st15 st16 st18">` ~</text>
	<text transform="matrix(1 0 0 1 46.5832 82.9041)" class="st15 st16 st18">    </text>
	<text transform="matrix(1 0 0 1 80.1911 82.8598)" class="st15 st16 st18">       </text>
	<text transform="matrix(1 0 0 1 80.1911 82.8598)" class="st15 st16 st18">1 !</text>
	<text transform="matrix(1 0 0 1 96.1046 82.8598)" class="st15 st16 st18">    </text>
	<text transform="matrix(1 0 0 1 147.6911 82.8598)" class="st15 st16 st18">       </text>
	<text transform="matrix(1 0 0 1 147.6911 82.8598)" class="st15 st16 st18">2 @</text>
	<text transform="matrix(1 0 0 1 172.3604 82.8598)" class="st15 st16 st18">    </text>
	<text transform="matrix(1 0 0 1 215.1911 82.8598)" class="st15 st16 st18">       </text>
	<text transform="matrix(1 0 0 1 215.1911 82.8598)" class="st15 st16 st18">3 #</text>
	<text transform="matrix(1 0 0 1 234.1475 82.8598)" class="st15 st16 st18">    </text>
	<text transform="matrix(1 0 0 1 282.6911 82.8598)" class="st15 st16 st18">       </text>
	<text transform="matrix(1 0 0 1 282.6911 82.8598)" class="st15 st16 st18">4 $</text>
	<text transform="matrix(1 0 0 1 301.6475 82.8598)" class="st15 st16 st18">    </text>
	<text transform="matrix(1 0 0 1 350.1911 82.8598)" class="st15 st16 st18">       </text>
	<text transform="matrix(1 0 0 1 350.1911 82.8598)" class="st15 st16 st18">5 %</text>
	<text transform="matrix(1 0 0 1 373.6885 82.8598)" class="st15 st16 st18">    </text>
	<text transform="matrix(1 0 0 1 417.6911 82.8598)" class="st15 st16 st18">       </text>
	<text transform="matrix(1 0 0 1 417.6911 82.8598)" class="st15 st16 st18">6 ^</text>
	<text transform="matrix(1 0 0 1 437.027 82.8598)" class="st15 st16 st18">    </text>
	<text transform="matrix(1 0 0 1 485.1911 82.8598)" class="st15 st16 st18">       </text>
	<text transform="matrix(1 0 0 1 485.1911 82.8598)" class="st15 st16 st18">7 &amp;</text>
	<text transform="matrix(1 0 0 1 506.4114 82.8598)" class="st15 st16 st18">    </text>
	<text transform="matrix(1 0 0 1 552.691 82.8598)" class="st15 st16 st18">       </text>
	<text transform="matrix(1 0 0 1 552.691 82.8598)" class="st15 st16 st18">8 *</text>
	<text transform="matrix(1 0 0 1 569.3703 82.8598)" class="st15 st16 st18">    </text>
	<text transform="matrix(1 0 0 1 620.191 82.8598)" class="st15 st16 st18">       </text>
	<text transform="matrix(1 0 0 1 620.191 82.8598)" class="st15 st16 st18">9 (</text>
	<text transform="matrix(1 0 0 1 636.1046 82.8598)" class="st15 st16 st18">    </text>
	<text transform="matrix(1 0 0 1 687.691 82.8598)" class="st15 st16 st18">       </text>
	<text transform="matrix(1 0 0 1 687.691 82.8598)" class="st15 st16 st18">0 )</text>
	<text transform="matrix(1 0 0 1 703.6046 82.8598)" class="st15 st16 st18">    </text>
	<text transform="matrix(1 0 0 1 755.191 82.8598)" class="st15 st16 st18">       </text>
	<text transform="matrix(1 0 0 1 755.191 82.8598)" class="st15 st16 st18">- _</text>
	<text transform="matrix(1 0 0 1 771.1046 82.8598)" class="st15 st16 st18">    </text>
	<text transform="matrix(1 0 0 1 822.691 82.8598)" class="st15 st16 st18">       </text>
	<text transform="matrix(1 0 0 1 822.691 82.8598)" class="st15 st16 st18">= +</text>
	<text transform="matrix(1 0 0 1 842.4065 82.8598)" class="st15 st16 st18">    </text>
	<text transform="matrix(1 0 0 1 890.191 82.8598)" class="st15 st16 st18">       </text>
	<text transform="matrix(1 0 0 1 890.191 82.8598)" class="st15 st16 st18">Backspace</text>
	<text transform="matrix(1 0 0 1 961.4557 82.8598)" class="st15 st16 st18">    </text>
	<text transform="matrix(1 0 0 1 992.7911 82.8598)" class="st15 st16 st18">       </text>
	<text transform="matrix(1 0 0 1 992.7911 82.8598)" class="st15 st16 st18">Home</text>
	<text transform="matrix(1 0 0 1 1030.6772 82.8598)" class="st15 st16 st18">    </text>
	<text transform="matrix(1 0 0 1 30.2902 150.3385)" class="st15 st16 st18">       </text>
	<text transform="matrix(1 0 0 1 30.2902 150.3385)" class="st0"><tspan x="0" y="0" class="st15 st16 st18">Tab </tspan><tspan x="30.8" y="0" class="st15 st19 st18">↹</tspan></text>
	<text transform="matrix(1 0 0 1 67.5371 150.3385)" class="st15 st16 st18">    </text>
	<text transform="matrix(1 0 0 1 114.931 150.3598)" class="st15 st16 st18">       </text>
	<text transform="matrix(1 0 0 1 114.931 150.3598)" class="st15 st16 st18">Q</text>
	<text transform="matrix(1 0 0 1 125.5378 150.3598)" class="st15 st16 st18">    </text>
	<text transform="matrix(1 0 0 1 182.431 150.3598)" class="st15 st16 st18">       </text>
	<text transform="matrix(1 0 0 1 182.431 150.3598)" class="st15 st16 st18">W</text>
	<text transform="matrix(1 0 0 1 195.3017 150.3598)" class="st15 st16 st18">    </text>
	<text transform="matrix(1 0 0 1 249.931 150.3598)" class="st15 st16 st18">       </text>
	<text transform="matrix(1 0 0 1 249.931 150.3598)" class="st15 st16 st18">E</text>
	<text transform="matrix(1 0 0 1 259.0264 150.3598)" class="st15 st16 st18">    </text>
	<text transform="matrix(1 0 0 1 317.4311 150.3598)" class="st15 st16 st18">       </text>
	<text transform="matrix(1 0 0 1 317.4311 150.3598)" class="st15 st16 st18">R</text>
	<text transform="matrix(1 0 0 1 327.2788 150.3598)" class="st15 st16 st18">    </text>
	<text transform="matrix(1 0 0 1 384.9311 150.3598)" class="st15 st16 st18">       </text>
	<text transform="matrix(1 0 0 1 384.9311 150.3598)" class="st15 st16 st18">T</text>
	<text transform="matrix(1 0 0 1 393.2607 150.3598)" class="st15 st16 st18">    </text>
	<text transform="matrix(1 0 0 1 452.4311 150.3598)" class="st15 st16 st18">       </text>
	<text transform="matrix(1 0 0 1 452.4311 150.3598)" class="st15 st16 st18">Y</text>
	<text transform="matrix(1 0 0 1 461.5264 150.3598)" class="st15 st16 st18">    </text>
	<text transform="matrix(1 0 0 1 519.931 150.3598)" class="st15 st16 st18">       </text>
	<text transform="matrix(1 0 0 1 519.931 150.3598)" class="st15 st16 st18">U</text>
	<text transform="matrix(1 0 0 1 529.7787 150.3598)" class="st15 st16 st18">    </text>
	<text transform="matrix(1 0 0 1 587.431 150.3598)" class="st15 st16 st18">       </text>
	<text transform="matrix(1 0 0 1 587.431 150.3598)" class="st15 st16 st18">I</text>
	<text transform="matrix(1 0 0 1 591.2197 150.3598)" class="st15 st16 st18">    </text>
	<text transform="matrix(1 0 0 1 654.931 150.3598)" class="st15 st16 st18">       </text>
	<text transform="matrix(1 0 0 1 654.931 150.3598)" class="st15 st16 st18">O</text>
	<text transform="matrix(1 0 0 1 665.5378 150.3598)" class="st15 st16 st18">    </text>
	<text transform="matrix(1 0 0 1 722.431 150.3598)" class="st15 st16 st18">       </text>
	<text transform="matrix(1 0 0 1 722.431 150.3598)" class="st15 st16 st18">P</text>
	<text transform="matrix(1 0 0 1 731.5264 150.3598)" class="st15 st16 st18">    </text>
	<text transform="matrix(1 0 0 1 789.931 150.3598)" class="st15 st16 st18">       </text>
	<text transform="matrix(1 0 0 1 789.931 150.3598)" class="st15 st16 st18">[ {</text>
	<text transform="matrix(1 0 0 1 803.5674 150.3598)" class="st15 st16 st18">    </text>
	<text transform="matrix(1 0 0 1 857.431 150.3598)" class="st15 st16 st18">       </text>
	<text transform="matrix(1 0 0 1 857.431 150.3598)" class="st15 st16 st18">] }</text>
	<text transform="matrix(1 0 0 1 871.0674 150.3598)" class="st15 st16 st18">    </text>
	<text transform="matrix(1 0 0 1 924.9312 150.3598)" class="st15 st16 st18">       </text>
	<text transform="matrix(1 0 0 1 924.9312 150.3598)" class="st15 st16 st18">| \</text>
	<text transform="matrix(1 0 0 1 936.3237 150.3598)" class="st15 st16 st18">    </text>
	<text transform="matrix(1 0 0 1 992.611 150.3598)" class="st15 st16 st18">       </text>
	<text transform="matrix(1 0 0 1 992.611 150.3598)" class="st15 st16 st18">PgUp</text>
	<text transform="matrix(1 0 0 1 1028.2134 150.3598)" class="st15 st16 st18">    </text>
	<text transform="matrix(1 0 0 1 30.2902 217.8385)" class="st15 st16 st18">       </text>
	<text transform="matrix(1 0 0 1 30.2902 217.8385)" class="st15 st16 st18">Caps Lock</text>
	<text transform="matrix(1 0 0 1 99.251 217.8385)" class="st15 st16 st18">    </text>
	<text transform="matrix(1 0 0 1 131.581 217.8598)" class="st15 st16 st18">       </text>
	<text transform="matrix(1 0 0 1 131.581 217.8598)" class="st15 st16 st18">A</text>
	<text transform="matrix(1 0 0 1 141.4288 217.8598)" class="st15 st16 st18">    </text>
	<text transform="matrix(1 0 0 1 199.081 217.8598)" class="st15 st16 st18">       </text>
	<text transform="matrix(1 0 0 1 199.081 217.8598)" class="st15 st16 st18">S</text>
	<text transform="matrix(1 0 0 1 208.1764 217.8598)" class="st15 st16 st18">    </text>
	<text transform="matrix(1 0 0 1 266.5811 217.8598)" class="st15 st16 st18">       </text>
	<text transform="matrix(1 0 0 1 266.5811 217.8598)" class="st15 st16 st18">D</text>
	<text transform="matrix(1 0 0 1 276.4288 217.8598)" class="st15 st16 st18">    </text>
	<text transform="matrix(1 0 0 1 334.0811 217.8598)" class="st15 st16 st18">       </text>
	<text transform="matrix(1 0 0 1 334.0811 217.8598)" class="st15 st16 st18">F</text>
	<text transform="matrix(1 0 0 1 342.4107 217.8598)" class="st15 st16 st18">    </text>
	<text transform="matrix(1 0 0 1 401.5811 217.8598)" class="st15 st16 st18">       </text>
	<text transform="matrix(1 0 0 1 401.5811 217.8598)" class="st15 st16 st18">G</text>
	<text transform="matrix(1 0 0 1 412.1879 217.8598)" class="st15 st16 st18">    </text>
	<text transform="matrix(1 0 0 1 469.0811 217.8598)" class="st15 st16 st18">       </text>
	<text transform="matrix(1 0 0 1 469.0811 217.8598)" class="st15 st16 st18">H</text>
	<text transform="matrix(1 0 0 1 478.9288 217.8598)" class="st15 st16 st18">    </text>
	<text transform="matrix(1 0 0 1 536.581 217.8598)" class="st15 st16 st18">       </text>
	<text transform="matrix(1 0 0 1 536.581 217.8598)" class="st15 st16 st18">J</text>
	<text transform="matrix(1 0 0 1 544.1649 217.8598)" class="st15 st16 st18">    </text>
	<text transform="matrix(1 0 0 1 604.081 217.8598)" class="st15 st16 st18">       </text>
	<text transform="matrix(1 0 0 1 604.081 217.8598)" class="st15 st16 st18">K</text>
	<text transform="matrix(1 0 0 1 613.9287 217.8598)" class="st15 st16 st18">    </text>
	<text transform="matrix(1 0 0 1 671.581 217.8598)" class="st15 st16 st18">       </text>
	<text transform="matrix(1 0 0 1 671.581 217.8598)" class="st15 st16 st18">L</text>
	<text transform="matrix(1 0 0 1 679.9106 217.8598)" class="st15 st16 st18">    </text>
	<text transform="matrix(1 0 0 1 739.081 217.8598)" class="st15 st16 st18">       </text>
	<text transform="matrix(1 0 0 1 739.081 217.8598)" class="st15 st16 st18">; :</text>
	<text transform="matrix(1 0 0 1 751.9517 217.8598)" class="st15 st16 st18">    </text>
	<text transform="matrix(1 0 0 1 806.581 217.8598)" class="st15 st16 st18">       </text>
	<text transform="matrix(1 0 0 1 806.581 217.8598)" class="st15 st16 st18">&apos; &quot;</text>
	<text transform="matrix(1 0 0 1 820.0775 217.8598)" class="st15 st16 st18">    </text>
	<text transform="matrix(1 0 0 1 874.081 217.8598)" class="st15 st16 st18">       </text>
	<text transform="matrix(1 0 0 1 874.081 217.8598)" class="st0"><tspan x="0" y="0" class="st15 st16 st18">Enter </tspan><tspan x="42.5" y="0" class="st15 st19 st18">↵</tspan></text>
	<text transform="matrix(1 0 0 1 922.9535 217.8598)" class="st15 st16 st18">    </text>
	<text transform="matrix(1 0 0 1 992.611 217.8598)" class="st15 st16 st18">       </text>
	<text transform="matrix(1 0 0 1 992.611 217.8598)" class="st15 st16 st18">PgDn</text>
	<text transform="matrix(1 0 0 1 1028.2134 217.8598)" class="st15 st16 st18">    </text>
	<text transform="matrix(1 0 0 1 30.2902 285.3385)" class="st15 st16 st18">       </text>
	<text transform="matrix(1 0 0 1 30.2902 285.3385)" class="st0"><tspan x="0" y="0" class="st15 st16 st18">Shift </tspan><tspan x="37.5" y="0" class="st15 st19 st18">⇧</tspan></text>
	<text transform="matrix(1 0 0 1 74.6017 285.3385)" class="st15 st16 st18">    </text>
	<text transform="matrix(1 0 0 1 165.2901 285.3385)" class="st15 st16 st18">       </text>
	<text transform="matrix(1 0 0 1 165.2901 285.3385)" class="st15 st16 st18">Z</text>
	<text transform="matrix(1 0 0 1 173.6198 285.3385)" class="st15 st16 st18">    </text>
	<text transform="matrix(1 0 0 1 232.7901 285.3385)" class="st15 st16 st18">       </text>
	<text transform="matrix(1 0 0 1 232.7901 285.3385)" class="st15 st16 st18">X</text>
	<text transform="matrix(1 0 0 1 241.8855 285.3385)" class="st15 st16 st18">    </text>
	<text transform="matrix(1 0 0 1 300.2902 285.4041)" class="st15 st16 st18">       </text>
	<text transform="matrix(1 0 0 1 300.2902 285.4041)" class="st15 st16 st18">C</text>
	<text transform="matrix(1 0 0 1 310.1379 285.4041)" class="st15 st16 st18">    </text>
	<text transform="matrix(1 0 0 1 367.7902 285.3385)" class="st15 st16 st18">       </text>
	<text transform="matrix(1 0 0 1 367.7902 285.3385)" class="st15 st16 st18">V</text>
	<text transform="matrix(1 0 0 1 376.8855 285.3385)" class="st15 st16 st18">    </text>
	<text transform="matrix(1 0 0 1 435.2902 285.3385)" class="st15 st16 st18">       </text>
	<text transform="matrix(1 0 0 1 435.2902 285.3385)" class="st15 st16 st18">B</text>
	<text transform="matrix(1 0 0 1 445.1379 285.3385)" class="st15 st16 st18">    </text>
	<text transform="matrix(1 0 0 1 502.7902 285.3385)" class="st15 st16 st18">       </text>
	<text transform="matrix(1 0 0 1 502.7902 285.3385)" class="st15 st16 st18">N</text>
	<text transform="matrix(1 0 0 1 512.6379 285.3385)" class="st15 st16 st18">    </text>
	<text transform="matrix(1 0 0 1 570.2901 285.3385)" class="st15 st16 st18">       </text>
	<text transform="matrix(1 0 0 1 570.2901 285.3385)" class="st15 st16 st18">M</text>
	<text transform="matrix(1 0 0 1 581.6493 285.3385)" class="st15 st16 st18">    </text>
	<text transform="matrix(1 0 0 1 637.7901 285.3385)" class="st15 st16 st18">       </text>
	<text transform="matrix(1 0 0 1 637.7901 285.3385)" class="st15 st16 st18">&lt; ,</text>
	<text transform="matrix(1 0 0 1 653.3307 285.3385)" class="st15 st16 st18">    </text>
	<text transform="matrix(1 0 0 1 705.2901 285.3385)" class="st15 st16 st18">       </text>
	<text transform="matrix(1 0 0 1 705.2901 285.3385)" class="st15 st16 st18">&gt; .</text>
	<text transform="matrix(1 0 0 1 720.8307 285.3385)" class="st15 st16 st18">    </text>
	<text transform="matrix(1 0 0 1 772.7901 285.3385)" class="st15 st16 st18">       </text>
	<text transform="matrix(1 0 0 1 772.7901 285.3385)" class="st15 st16 st18">/ ?</text>
	<text transform="matrix(1 0 0 1 788.697 285.3385)" class="st15 st16 st18">    </text>
	<text transform="matrix(1 0 0 1 840.2901 285.3385)" class="st15 st16 st18">       </text>
	<text transform="matrix(1 0 0 1 840.2901 285.3385)" class="st0"><tspan x="0" y="0" class="st15 st16 st18">Shift </tspan><tspan x="37.5" y="0" class="st15 st19 st18">⇧</tspan></text>
	<text transform="matrix(1 0 0 1 884.6016 285.3385)" class="st15 st16 st18">    </text>
	<text transform="matrix(1 0 0 1 924.7512 285.3598)" class="st15 st16 st18">       </text>
	<text transform="matrix(1 0 0 1 924.7512 285.3598)" class="st15 st16 st18">↑</text>
	<text transform="matrix(1 0 0 1 931.5693 285.3598)" class="st15 st16 st18">    </text>
	<text transform="matrix(1 0 0 1 992.611 285.3598)" class="st15 st16 st18">       </text>
	<text transform="matrix(1 0 0 1 992.611 285.3598)" class="st15 st16 st18">End</text>
	<text transform="matrix(1 0 0 1 1018.3657 285.3598)" class="st15 st16 st18">    </text>
	<text transform="matrix(1 0 0 1 30.2902 352.8385)" class="st15 st16 st18">       </text>
	<text transform="matrix(1 0 0 1 30.2902 352.8385)" class="st15 st16 st18">Ctrl</text>
	<text transform="matrix(1 0 0 1 53.7743 352.8385)" class="st15 st16 st18">    </text>
	<text transform="matrix(1 0 0 1 97.7902 352.8385)" class="st15 st16 st18">       </text>
	<text transform="matrix(1 0 0 1 97.7902 352.8385)" class="st15 st16 st18">Fn</text>
	<text transform="matrix(1 0 0 1 114.4494 352.8385)" class="st15 st16 st18">    </text>
	<text transform="matrix(1 0 0 1 165.2901 352.8385)" class="st15 st16 st18">       </text>
	<text transform="matrix(1 0 0 1 165.2901 352.8385)" class="st15 st16 st18">Super</text>
	<text transform="matrix(1 0 0 1 203.9354 352.8385)" class="st15 st16 st18">    </text>
	<text transform="matrix(1 0 0 1 232.7901 352.8385)" class="st15 st16 st18">       </text>
	<text transform="matrix(1 0 0 1 232.7901 352.8385)" class="st15 st16 st18">Alt</text>
	<text transform="matrix(1 0 0 1 250.9675 352.8385)" class="st15 st16 st18">    </text>
	<text transform="matrix(1 0 0 1 299.7164 352.7199)" class="st15 st16 st18">       </text>
	<text transform="matrix(1 0 0 1 299.7164 352.7199)" class="st15 st16 st18">    </text>
	<text transform="matrix(1 0 0 1 587.2511 352.8598)" class="st15 st16 st18">       </text>
	<text transform="matrix(1 0 0 1 587.2511 352.8598)" class="st15 st16 st18">AltGr</text>
	<text transform="matrix(1 0 0 1 621.342 352.8598)" class="st15 st16 st18">    </text>
	<text transform="matrix(1 0 0 1 654.5089 352.4943)" class="st15 st16 st18">       </text>
	<text transform="matrix(1 0 0 1 654.5089 352.4943)" class="st15 st16 st18">Menu</text>
	<text transform="matrix(1 0 0 1 690.1112 352.4943)" class="st15 st16 st18">    </text>
	<text transform="matrix(1 0 0 1 722.2511 352.8598)" class="st15 st16 st18">       </text>
	<text transform="matrix(1 0 0 1 722.2511 352.8598)" class="st15 st16 st18">Ins</text>
	<text transform="matrix(1 0 0 1 741.9532 352.8598)" class="st15 st16 st18">    </text>
	<text transform="matrix(1 0 0 1 789.7512 352.8598)" class="st15 st16 st18">       </text>
	<text transform="matrix(1 0 0 1 789.7512 352.8598)" class="st15 st16 st18">Del</text>
	<text transform="matrix(1 0 0 1 810.9714 352.8598)" class="st15 st16 st18">    </text>
	<text transform="matrix(1 0 0 1 857.2512 352.8598)" class="st15 st16 st18">       </text>
	<text transform="matrix(1 0 0 1 857.2512 352.8598)" class="st15 st16 st18">←</text>
	<text transform="matrix(1 0 0 1 870.8875 352.8598)" class="st15 st16 st18">    </text>
	<text transform="matrix(1 0 0 1 924.7512 352.8598)" class="st15 st16 st18">       </text>
	<text transform="matrix(1 0 0 1 924.7512 352.8598)" class="st15 st16 st18">↓</text>
	<text transform="matrix(1 0 0 1 931.5693 352.8598)" class="st15 st16 st18">    </text>
	<text transform="matrix(1 0 0 1 992.611 352.8598)" class="st15 st16 st18">       </text>
	<text transform="matrix(1 0 0 1 992.611 352.8598)" class="st15 st16 st18">→</text>
	<text transform="matrix(1 0 0 1 1006.2474 352.8598)" class="st15 st16 st18">    </text>
</g>
<g id="layer1" transform="translate(0 .0032640)" inkscape:groupmode="layer" inkscape:label="Key maps" class="st20">
	<text transform="matrix(1 0 0 1 29.7898 52.6382)" class="st21 st16 st17">       </text>
	<text transform="matrix(1 0 0 1 29.7898 52.6382)" class="st21 st16 st17">—</text>
	<text transform="matrix(1 0 0 1 42.2898 52.6382)" class="st21 st16 st17">    </text>
	<text transform="matrix(1 0 0 1 80.1898 52.6707)" class="st21 st16 st17">       </text>
	<text transform="matrix(1 0 0 1 80.1898 52.6707)" class="st21 st16 st17">—</text>
	<text transform="matrix(1 0 0 1 92.6898 52.6707)" class="st21 st16 st17">    </text>
	<text transform="matrix(1 0 0 1 141.384 52.6707)" class="st21 st16 st17">       </text>
	<text transform="matrix(1 0 0 1 141.384 52.6707)" class="st21 st16 st17">—</text>
	<text transform="matrix(1 0 0 1 153.884 52.6707)" class="st21 st16 st17">    </text>
	<text transform="matrix(1 0 0 1 202.5898 52.6707)" class="st21 st16 st17">       </text>
	<text transform="matrix(1 0 0 1 202.5898 52.6707)" class="st21 st16 st17">—</text>
	<text transform="matrix(1 0 0 1 215.0898 52.6707)" class="st21 st16 st17">    </text>
	<text transform="matrix(1 0 0 1 263.7898 52.6707)" class="st21 st16 st17">       </text>
	<text transform="matrix(1 0 0 1 263.7898 52.6707)" class="st21 st16 st17">—</text>
	<text transform="matrix(1 0 0 1 276.2898 52.6707)" class="st21 st16 st17">    </text>
	<text transform="matrix(1 0 0 1 324.9898 52.6707)" class="st21 st16 st17">       </text>
	<text transform="matrix(1 0 0 1 324.9898 52.6707)" class="st21 st16 st17">—</text>
	<text transform="matrix(1 0 0 1 337.4898 52.6707)" class="st21 st16 st17">    </text>
	<text transform="matrix(1 0 0 1 386.1898 52.6707)" class="st21 st16 st17">       </text>
	<text transform="matrix(1 0 0 1 386.1898 52.6707)" class="st21 st16 st17">—</text>
	<text transform="matrix(1 0 0 1 398.6898 52.6707)" class="st21 st16 st17">    </text>
	<text transform="matrix(1 0 0 1 447.3898 52.6707)" class="st21 st16 st17">       </text>
	<text transform="matrix(1 0 0 1 447.3898 52.6707)" class="st21 st16 st17">—</text>
	<text transform="matrix(1 0 0 1 459.8898 52.6707)" class="st21 st16 st17">    </text>
	<text transform="matrix(1 0 0 1 508.5898 52.6707)" class="st21 st16 st17">       </text>
	<text transform="matrix(1 0 0 1 508.5898 52.6707)" class="st21 st16 st17">—</text>
	<text transform="matrix(1 0 0 1 521.0898 52.6707)" class="st21 st16 st17">    </text>
	<text transform="matrix(1 0 0 1 569.7899 52.6707)" class="st21 st16 st17">       </text>
	<text transform="matrix(1 0 0 1 569.7899 52.6707)" class="st21 st16 st17">—</text>
	<text transform="matrix(1 0 0 1 582.2899 52.6707)" class="st21 st16 st17">    </text>
	<text transform="matrix(1 0 0 1 630.9899 52.6707)" class="st21 st16 st17">       </text>
	<text transform="matrix(1 0 0 1 630.9899 52.6707)" class="st21 st16 st17">—</text>
	<text transform="matrix(1 0 0 1 643.4899 52.6707)" class="st21 st16 st17">    </text>
	<text transform="matrix(1 0 0 1 692.1899 52.6707)" class="st21 st16 st17">       </text>
	<text transform="matrix(1 0 0 1 692.1899 52.6707)" class="st21 st16 st17">—</text>
	<text transform="matrix(1 0 0 1 704.6899 52.6707)" class="st21 st16 st17">    </text>
	<text transform="matrix(1 0 0 1 753.3899 52.6708)" class="st21 st16 st17">       </text>
	<text transform="matrix(1 0 0 1 753.3899 52.6708)" class="st21 st16 st17">—</text>
	<text transform="matrix(1 0 0 1 765.8899 52.6708)" class="st21 st16 st17">    </text>
	<text transform="matrix(1 0 0 1 814.5899 52.6707)" class="st21 st16 st17">       </text>
	<text transform="matrix(1 0 0 1 814.5899 52.6707)" class="st21 st16 st17">—</text>
	<text transform="matrix(1 0 0 1 827.0899 52.6707)" class="st21 st16 st17">    </text>
	<text transform="matrix(1 0 0 1 875.7899 52.6707)" class="st21 st16 st17">       </text>
	<text transform="matrix(1 0 0 1 875.7899 52.6707)" class="st21 st16 st17">—</text>
	<text transform="matrix(1 0 0 1 888.2899 52.6707)" class="st21 st16 st17">    </text>
	<text transform="matrix(1 0 0 1 936.9899 52.6707)" class="st21 st16 st17">       </text>
	<text transform="matrix(1 0 0 1 936.9899 52.6707)" class="st21 st16 st17">—</text>
	<text transform="matrix(1 0 0 1 949.4899 52.6707)" class="st21 st16 st17">    </text>
	<text transform="matrix(1 0 0 1 998.1899 52.6707)" class="st21 st16 st17">       </text>
	<text transform="matrix(1 0 0 1 998.1899 52.6707)" class="st21 st16 st17">—</text>
	<text transform="matrix(1 0 0 1 1010.6899 52.6707)" class="st21 st16 st17">    </text>
	<text transform="matrix(1 0 0 1 29.7354 101.5874)" class="st21 st16 st17">       </text>
	<text transform="matrix(1 0 0 1 29.7354 101.5874)" class="st21 st16 st17">—</text>
	<text transform="matrix(1 0 0 1 42.2354 101.5874)" class="st21 st16 st17">    </text>
	<text transform="matrix(1 0 0 1 79.6374 101.5607)" class="st21 st16 st17">       </text>
	<text transform="matrix(1 0 0 1 79.6374 101.5607)" class="st21 st16 st17">—</text>
	<text transform="matrix(1 0 0 1 92.1374 101.5607)" class="st21 st16 st17">    </text>
	<text transform="matrix(1 0 0 1 147.1387 101.5607)" class="st21 st16 st17">       </text>
	<text transform="matrix(1 0 0 1 147.1387 101.5607)" class="st21 st16 st17">—</text>
	<text transform="matrix(1 0 0 1 159.6387 101.5607)" class="st21 st16 st17">    </text>
	<text transform="matrix(1 0 0 1 214.64 101.5607)" class="st21 st16 st17">       </text>
	<text transform="matrix(1 0 0 1 214.64 101.5607)" class="st21 st16 st17">—</text>
	<text transform="matrix(1 0 0 1 227.14 101.5607)" class="st21 st16 st17">    </text>
	<text transform="matrix(1 0 0 1 282.1414 101.5607)" class="st21 st16 st17">       </text>
	<text transform="matrix(1 0 0 1 282.1414 101.5607)" class="st21 st16 st17">—</text>
	<text transform="matrix(1 0 0 1 294.6414 101.5607)" class="st21 st16 st17">    </text>
	<text transform="matrix(1 0 0 1 349.6428 101.5607)" class="st21 st16 st17">       </text>
	<text transform="matrix(1 0 0 1 349.6428 101.5607)" class="st21 st16 st17">—</text>
	<text transform="matrix(1 0 0 1 362.1428 101.5607)" class="st21 st16 st17">    </text>
	<text transform="matrix(1 0 0 1 417.1441 101.5607)" class="st21 st16 st17">       </text>
	<text transform="matrix(1 0 0 1 417.1441 101.5607)" class="st21 st16 st17">—</text>
	<text transform="matrix(1 0 0 1 429.6441 101.5607)" class="st21 st16 st17">    </text>
	<text transform="matrix(1 0 0 1 484.6454 101.5607)" class="st21 st16 st17">       </text>
	<text transform="matrix(1 0 0 1 484.6454 101.5607)" class="st21 st16 st17">—</text>
	<text transform="matrix(1 0 0 1 497.1454 101.5607)" class="st21 st16 st17">    </text>
	<text transform="matrix(1 0 0 1 552.1468 101.5607)" class="st21 st16 st17">       </text>
	<text transform="matrix(1 0 0 1 552.1468 101.5607)" class="st21 st16 st17">—</text>
	<text transform="matrix(1 0 0 1 564.6468 101.5607)" class="st21 st16 st17">    </text>
	<text transform="matrix(1 0 0 1 619.6481 101.5607)" class="st21 st16 st17">       </text>
	<text transform="matrix(1 0 0 1 619.6481 101.5607)" class="st21 st16 st17">—</text>
	<text transform="matrix(1 0 0 1 632.1481 101.5607)" class="st21 st16 st17">    </text>
	<text transform="matrix(1 0 0 1 687.1495 101.5607)" class="st21 st16 st17">       </text>
	<text transform="matrix(1 0 0 1 687.1495 101.5607)" class="st21 st16 st17">—</text>
	<text transform="matrix(1 0 0 1 699.6495 101.5607)" class="st21 st16 st17">    </text>
	<text transform="matrix(1 0 0 1 754.6509 101.5607)" class="st21 st16 st17">       </text>
	<text transform="matrix(1 0 0 1 754.6509 101.5607)" class="st21 st16 st17">—</text>
	<text transform="matrix(1 0 0 1 767.1509 101.5607)" class="st21 st16 st17">    </text>
	<text transform="matrix(1 0 0 1 822.1522 101.5607)" class="st21 st16 st17">       </text>
	<text transform="matrix(1 0 0 1 822.1522 101.5607)" class="st21 st16 st17">—</text>
	<text transform="matrix(1 0 0 1 834.6522 101.5607)" class="st21 st16 st17">    </text>
	<text transform="matrix(1 0 0 1 889.6536 101.5607)" class="st21 st16 st17">       </text>
	<text transform="matrix(1 0 0 1 889.6536 101.5607)" class="st21 st16 st17">—</text>
	<text transform="matrix(1 0 0 1 902.1536 101.5607)" class="st21 st16 st17">    </text>
	<text transform="matrix(1 0 0 1 992.2557 101.5607)" class="st21 st16 st17">       </text>
	<text transform="matrix(1 0 0 1 992.2557 101.5607)" class="st21 st16 st17">—</text>
	<text transform="matrix(1 0 0 1 1004.7557 101.5607)" class="st21 st16 st17">    </text>
	<text transform="matrix(1 0 0 1 29.7354 169.0874)" class="st21 st16 st17">       </text>
	<text transform="matrix(1 0 0 1 29.7354 169.0874)" class="st21 st16 st17">—</text>
	<text transform="matrix(1 0 0 1 42.2354 169.0874)" class="st21 st16 st17">    </text>
	<text transform="matrix(1 0 0 1 114.378 169.0607)" class="st21 st16 st17">       </text>
	<text transform="matrix(1 0 0 1 114.378 169.0607)" class="st21 st16 st17">—</text>
	<text transform="matrix(1 0 0 1 126.878 169.0607)" class="st21 st16 st17">    </text>
	<text transform="matrix(1 0 0 1 181.8793 169.0607)" class="st21 st16 st17">       </text>
	<text transform="matrix(1 0 0 1 181.8793 169.0607)" class="st21 st16 st17">—</text>
	<text transform="matrix(1 0 0 1 194.3793 169.0607)" class="st21 st16 st17">    </text>
	<text transform="matrix(1 0 0 1 249.3807 169.0607)" class="st21 st16 st17">       </text>
	<text transform="matrix(1 0 0 1 249.3807 169.0607)" class="st21 st16 st17">—</text>
	<text transform="matrix(1 0 0 1 261.8807 169.0607)" class="st21 st16 st17">    </text>
	<text transform="matrix(1 0 0 1 316.882 169.0607)" class="st21 st16 st17">       </text>
	<text transform="matrix(1 0 0 1 316.882 169.0607)" class="st21 st16 st17">—</text>
	<text transform="matrix(1 0 0 1 329.382 169.0607)" class="st21 st16 st17">    </text>
	<text transform="matrix(1 0 0 1 384.3834 169.0607)" class="st21 st16 st17">       </text>
	<text transform="matrix(1 0 0 1 384.3834 169.0607)" class="st21 st16 st17">—</text>
	<text transform="matrix(1 0 0 1 396.8834 169.0607)" class="st21 st16 st17">    </text>
	<text transform="matrix(1 0 0 1 451.8848 169.0607)" class="st21 st16 st17">       </text>
	<text transform="matrix(1 0 0 1 451.8848 169.0607)" class="st21 st16 st17">—</text>
	<text transform="matrix(1 0 0 1 464.3848 169.0607)" class="st21 st16 st17">    </text>
	<text transform="matrix(1 0 0 1 519.3861 169.0607)" class="st21 st16 st17">       </text>
	<text transform="matrix(1 0 0 1 519.3861 169.0607)" class="st21 st16 st17">—</text>
	<text transform="matrix(1 0 0 1 531.8861 169.0607)" class="st21 st16 st17">    </text>
	<text transform="matrix(1 0 0 1 586.8875 169.0607)" class="st21 st16 st17">       </text>
	<text transform="matrix(1 0 0 1 586.8875 169.0607)" class="st21 st16 st17">—</text>
	<text transform="matrix(1 0 0 1 599.3875 169.0607)" class="st21 st16 st17">    </text>
	<text transform="matrix(1 0 0 1 654.3888 169.0607)" class="st21 st16 st17">       </text>
	<text transform="matrix(1 0 0 1 654.3888 169.0607)" class="st21 st16 st17">—</text>
	<text transform="matrix(1 0 0 1 666.8888 169.0607)" class="st21 st16 st17">    </text>
	<text transform="matrix(1 0 0 1 721.8901 169.0607)" class="st21 st16 st17">       </text>
	<text transform="matrix(1 0 0 1 721.8901 169.0607)" class="st21 st16 st17">—</text>
	<text transform="matrix(1 0 0 1 734.3901 169.0607)" class="st21 st16 st17">    </text>
	<text transform="matrix(1 0 0 1 789.3915 169.0607)" class="st21 st16 st17">       </text>
	<text transform="matrix(1 0 0 1 789.3915 169.0607)" class="st21 st16 st17">—</text>
	<text transform="matrix(1 0 0 1 801.8915 169.0607)" class="st21 st16 st17">    </text>
	<text transform="matrix(1 0 0 1 856.8929 169.0607)" class="st21 st16 st17">       </text>
	<text transform="matrix(1 0 0 1 856.8929 169.0607)" class="st21 st16 st17">—</text>
	<text transform="matrix(1 0 0 1 869.3929 169.0607)" class="st21 st16 st17">    </text>
	<text transform="matrix(1 0 0 1 924.3944 169.0607)" class="st21 st16 st17">       </text>
	<text transform="matrix(1 0 0 1 924.3944 169.0607)" class="st21 st16 st17">—</text>
	<text transform="matrix(1 0 0 1 936.8944 169.0607)" class="st21 st16 st17">    </text>
	<text transform="matrix(1 0 0 1 992.0756 169.0607)" class="st21 st16 st17">       </text>
	<text transform="matrix(1 0 0 1 992.0756 169.0607)" class="st21 st16 st17">—</text>
	<text transform="matrix(1 0 0 1 1004.5756 169.0607)" class="st21 st16 st17">    </text>
	<text transform="matrix(1 0 0 1 29.7354 236.5874)" class="st21 st16 st17">       </text>
	<text transform="matrix(1 0 0 1 29.7354 236.5874)" class="st21 st16 st17">—</text>
	<text transform="matrix(1 0 0 1 42.2354 236.5874)" class="st21 st16 st17">    </text>
	<text transform="matrix(1 0 0 1 131.0283 236.5607)" class="st21 st16 st17">       </text>
	<text transform="matrix(1 0 0 1 131.0283 236.5607)" class="st21 st16 st17">—</text>
	<text transform="matrix(1 0 0 1 143.5283 236.5607)" class="st21 st16 st17">    </text>
	<text transform="matrix(1 0 0 1 198.5297 236.5607)" class="st21 st16 st17">       </text>
	<text transform="matrix(1 0 0 1 198.5297 236.5607)" class="st21 st16 st17">—</text>
	<text transform="matrix(1 0 0 1 211.0297 236.5607)" class="st21 st16 st17">    </text>
	<text transform="matrix(1 0 0 1 266.031 236.5607)" class="st21 st16 st17">       </text>
	<text transform="matrix(1 0 0 1 266.031 236.5607)" class="st21 st16 st17">—</text>
	<text transform="matrix(1 0 0 1 278.531 236.5607)" class="st21 st16 st17">    </text>
	<text transform="matrix(1 0 0 1 333.5324 236.5607)" class="st21 st16 st17">       </text>
	<text transform="matrix(1 0 0 1 333.5324 236.5607)" class="st21 st16 st17">—</text>
	<text transform="matrix(1 0 0 1 346.0324 236.5607)" class="st21 st16 st17">    </text>
	<text transform="matrix(1 0 0 1 401.0338 236.5607)" class="st21 st16 st17">       </text>
	<text transform="matrix(1 0 0 1 401.0338 236.5607)" class="st21 st16 st17">—</text>
	<text transform="matrix(1 0 0 1 413.5338 236.5607)" class="st21 st16 st17">    </text>
	<text transform="matrix(1 0 0 1 468.5351 236.5607)" class="st21 st16 st17">       </text>
	<text transform="matrix(1 0 0 1 468.5351 236.5607)" class="st21 st16 st17">—</text>
	<text transform="matrix(1 0 0 1 481.0351 236.5607)" class="st21 st16 st17">    </text>
	<text transform="matrix(1 0 0 1 536.0364 236.5607)" class="st21 st16 st17">       </text>
	<text transform="matrix(1 0 0 1 536.0364 236.5607)" class="st21 st16 st17">—</text>
	<text transform="matrix(1 0 0 1 548.5364 236.5607)" class="st21 st16 st17">    </text>
	<text transform="matrix(1 0 0 1 603.5378 236.5607)" class="st21 st16 st17">       </text>
	<text transform="matrix(1 0 0 1 603.5378 236.5607)" class="st21 st16 st17">—</text>
	<text transform="matrix(1 0 0 1 616.0378 236.5607)" class="st21 st16 st17">    </text>
	<text transform="matrix(1 0 0 1 671.0391 236.5607)" class="st21 st16 st17">       </text>
	<text transform="matrix(1 0 0 1 671.0391 236.5607)" class="st21 st16 st17">—</text>
	<text transform="matrix(1 0 0 1 683.5391 236.5607)" class="st21 st16 st17">    </text>
	<text transform="matrix(1 0 0 1 738.5405 236.5607)" class="st21 st16 st17">       </text>
	<text transform="matrix(1 0 0 1 738.5405 236.5607)" class="st21 st16 st17">—</text>
	<text transform="matrix(1 0 0 1 751.0405 236.5607)" class="st21 st16 st17">    </text>
	<text transform="matrix(1 0 0 1 806.0419 236.5607)" class="st21 st16 st17">       </text>
	<text transform="matrix(1 0 0 1 806.0419 236.5607)" class="st21 st16 st17">—</text>
	<text transform="matrix(1 0 0 1 818.5419 236.5607)" class="st21 st16 st17">    </text>
	<text transform="matrix(1 0 0 1 873.5432 236.5607)" class="st21 st16 st17">       </text>
	<text transform="matrix(1 0 0 1 873.5432 236.5607)" class="st21 st16 st17">—</text>
	<text transform="matrix(1 0 0 1 886.0432 236.5607)" class="st21 st16 st17">    </text>
	<text transform="matrix(1 0 0 1 992.0756 236.5607)" class="st21 st16 st17">       </text>
	<text transform="matrix(1 0 0 1 992.0756 236.5607)" class="st21 st16 st17">—</text>
	<text transform="matrix(1 0 0 1 1004.5756 236.5607)" class="st21 st16 st17">    </text>
	<text transform="matrix(1 0 0 1 29.6969 304.0874)" class="st21 st16 st17">       </text>
	<text transform="matrix(1 0 0 1 29.6969 304.0874)" class="st21 st16 st17">—</text>
	<text transform="matrix(1 0 0 1 42.1969 304.0874)" class="st21 st16 st17">    </text>
	<text transform="matrix(1 0 0 1 164.7381 304.0874)" class="st21 st16 st17">       </text>
	<text transform="matrix(1 0 0 1 164.7381 304.0874)" class="st21 st16 st17">—</text>
	<text transform="matrix(1 0 0 1 177.2381 304.0874)" class="st21 st16 st17">    </text>
	<text transform="matrix(1 0 0 1 232.2395 304.0874)" class="st21 st16 st17">       </text>
	<text transform="matrix(1 0 0 1 232.2395 304.0874)" class="st21 st16 st17">—</text>
	<text transform="matrix(1 0 0 1 244.7395 304.0874)" class="st21 st16 st17">    </text>
	<text transform="matrix(1 0 0 1 299.7408 304.0874)" class="st21 st16 st17">       </text>
	<text transform="matrix(1 0 0 1 299.7408 304.0874)" class="st21 st16 st17">—</text>
	<text transform="matrix(1 0 0 1 312.2408 304.0874)" class="st21 st16 st17">    </text>
	<text transform="matrix(1 0 0 1 367.2422 304.0874)" class="st21 st16 st17">       </text>
	<text transform="matrix(1 0 0 1 367.2422 304.0874)" class="st21 st16 st17">—</text>
	<text transform="matrix(1 0 0 1 379.7422 304.0874)" class="st21 st16 st17">    </text>
	<text transform="matrix(1 0 0 1 434.7435 304.0874)" class="st21 st16 st17">       </text>
	<text transform="matrix(1 0 0 1 434.7435 304.0874)" class="st21 st16 st17">—</text>
	<text transform="matrix(1 0 0 1 447.2435 304.0874)" class="st21 st16 st17">    </text>
	<text transform="matrix(1 0 0 1 502.2449 304.0874)" class="st21 st16 st17">       </text>
	<text transform="matrix(1 0 0 1 502.2449 304.0874)" class="st21 st16 st17">—</text>
	<text transform="matrix(1 0 0 1 514.7449 304.0874)" class="st21 st16 st17">    </text>
	<text transform="matrix(1 0 0 1 569.7462 304.0874)" class="st21 st16 st17">       </text>
	<text transform="matrix(1 0 0 1 569.7462 304.0874)" class="st21 st16 st17">—</text>
	<text transform="matrix(1 0 0 1 582.2462 304.0874)" class="st21 st16 st17">    </text>
	<text transform="matrix(1 0 0 1 637.2476 304.0874)" class="st21 st16 st17">       </text>
	<text transform="matrix(1 0 0 1 637.2476 304.0874)" class="st21 st16 st17">—</text>
	<text transform="matrix(1 0 0 1 649.7476 304.0874)" class="st21 st16 st17">    </text>
	<text transform="matrix(1 0 0 1 704.7489 304.0874)" class="st21 st16 st17">       </text>
	<text transform="matrix(1 0 0 1 704.7489 304.0874)" class="st21 st16 st17">—</text>
	<text transform="matrix(1 0 0 1 717.2489 304.0874)" class="st21 st16 st17">    </text>
	<text transform="matrix(1 0 0 1 772.2503 304.0874)" class="st21 st16 st17">       </text>
	<text transform="matrix(1 0 0 1 772.2503 304.0874)" class="st21 st16 st17">—</text>
	<text transform="matrix(1 0 0 1 784.7503 304.0874)" class="st21 st16 st17">    </text>
	<text transform="matrix(1 0 0 1 839.7516 304.0874)" class="st21 st16 st17">       </text>
	<text transform="matrix(1 0 0 1 839.7516 304.0874)" class="st21 st16 st17">—</text>
	<text transform="matrix(1 0 0 1 852.2516 304.0874)" class="st21 st16 st17">    </text>
	<text transform="matrix(1 0 0 1 924.2144 304.0607)" class="st21 st16 st17">       </text>
	<text transform="matrix(1 0 0 1 924.2144 304.0607)" class="st21 st16 st17">—</text>
	<text transform="matrix(1 0 0 1 936.7144 304.0607)" class="st21 st16 st17">    </text>
	<text transform="matrix(1 0 0 1 992.0756 304.0607)" class="st21 st16 st17">       </text>
	<text transform="matrix(1 0 0 1 992.0756 304.0607)" class="st21 st16 st17">—</text>
	<text transform="matrix(1 0 0 1 1004.5756 304.0607)" class="st21 st16 st17">    </text>
	<text transform="matrix(1 0 0 1 29.7869 371.5874)" class="st21 st16 st17">       </text>
	<text transform="matrix(1 0 0 1 29.7869 371.5874)" class="st21 st16 st17">—</text>
	<text transform="matrix(1 0 0 1 42.2869 371.5874)" class="st21 st16 st17">    </text>
	<text transform="matrix(1 0 0 1 97.2368 371.5874)" class="st21 st16 st17">       </text>
	<text transform="matrix(1 0 0 1 97.2368 371.5874)" class="st21 st16 st17">—</text>
	<text transform="matrix(1 0 0 1 109.7368 371.5874)" class="st21 st16 st17">    </text>
	<text transform="matrix(1 0 0 1 164.7381 371.5874)" class="st21 st16 st17">       </text>
	<text transform="matrix(1 0 0 1 164.7381 371.5874)" class="st21 st16 st17">—</text>
	<text transform="matrix(1 0 0 1 177.2381 371.5874)" class="st21 st16 st17">    </text>
	<text transform="matrix(1 0 0 1 232.2395 371.5874)" class="st21 st16 st17">       </text>
	<text transform="matrix(1 0 0 1 232.2395 371.5874)" class="st21 st16 st17">—</text>
	<text transform="matrix(1 0 0 1 244.7395 371.5874)" class="st21 st16 st17">    </text>
	<text transform="matrix(1 0 0 1 299.7092 371.5875)" class="st21 st16 st17">       </text>
	<text transform="matrix(1 0 0 1 299.7092 371.5875)" class="st21 st16 st17">—</text>
	<text transform="matrix(1 0 0 1 312.2092 371.5875)" class="st21 st16 st17">    </text>
	<text transform="matrix(1 0 0 1 586.7075 371.5607)" class="st21 st16 st17">       </text>
	<text transform="matrix(1 0 0 1 586.7075 371.5607)" class="st21 st16 st17">—</text>
	<text transform="matrix(1 0 0 1 599.2075 371.5607)" class="st21 st16 st17">    </text>
	<text transform="matrix(1 0 0 1 653.9666 371.5874)" class="st21 st16 st17">       </text>
	<text transform="matrix(1 0 0 1 653.9666 371.5874)" class="st21 st16 st17">—</text>
	<text transform="matrix(1 0 0 1 666.4666 371.5874)" class="st21 st16 st17">    </text>
	<text transform="matrix(1 0 0 1 721.7102 371.5607)" class="st21 st16 st17">       </text>
	<text transform="matrix(1 0 0 1 721.7102 371.5607)" class="st21 st16 st17">—</text>
	<text transform="matrix(1 0 0 1 734.2102 371.5607)" class="st21 st16 st17">    </text>
	<text transform="matrix(1 0 0 1 789.2117 371.5607)" class="st21 st16 st17">       </text>
	<text transform="matrix(1 0 0 1 789.2117 371.5607)" class="st21 st16 st17">—</text>
	<text transform="matrix(1 0 0 1 801.7117 371.5607)" class="st21 st16 st17">    </text>
	<text transform="matrix(1 0 0 1 856.7131 371.5607)" class="st21 st16 st17">       </text>
	<text transform="matrix(1 0 0 1 856.7131 371.5607)" class="st21 st16 st17">—</text>
	<text transform="matrix(1 0 0 1 869.2131 371.5607)" class="st21 st16 st17">    </text>
	<text transform="matrix(1 0 0 1 924.2144 371.5607)" class="st21 st16 st17">       </text>
	<text transform="matrix(1 0 0 1 924.2144 371.5607)" class="st21 st16 st17">—</text>
	<text transform="matrix(1 0 0 1 936.7144 371.5607)" class="st21 st16 st17">    </text>
	<text transform="matrix(1 0 0 1 992.0756 371.5607)" class="st21 st16 st17">       </text>
	<text transform="matrix(1 0 0 1 992.0756 371.5607)" class="st21 st16 st17">—</text>
	<text transform="matrix(1 0 0 1 1004.5756 371.5607)" class="st21 st16 st17">    </text>
</g>
</svg>
